<svg width="12" height="12" viewBox="0 0 12 12" fill="none" xmlns="http://www.w3.org/2000/svg">
<path fill-rule="evenodd" clip-rule="evenodd" d="M11.7972 1.15152L6.37788 6.38788C6.16043 6.59798 5.83957 6.59798 5.62212 6.38788L0.202777 1.15152C-0.0407022 0.916266 -0.0688998 0.503052 0.139797 0.228585C0.348493 -0.0458826 0.715053 -0.0776689 0.958532 0.157589L6 5.02882L11.0415 0.157589C11.2849 -0.0776689 11.6515 -0.0458826 11.8602 0.228585C12.0689 0.503052 12.0407 0.916266 11.7972 1.15152Z" fill="#FF0000"/>
<path fill-rule="evenodd" clip-rule="evenodd" d="M0.202776 10.8485L5.62212 5.61212C5.83957 5.40202 6.16043 5.40202 6.37788 5.61212L11.7972 10.8485C12.0407 11.0837 12.0689 11.4969 11.8602 11.7714C11.6515 12.0459 11.2849 12.0777 11.0415 11.8424L6 6.97118L0.958533 11.8424C0.715054 12.0777 0.348493 12.0459 0.139797 11.7714C-0.0688996 11.4969 -0.0407026 11.0837 0.202776 10.8485Z" fill="#FF0000"/>
</svg>
